<?xml version="1.0" standalone="no"?>
<!DOCTYPE svg PUBLIC "-//W3C//DTD SVG 20010904//EN" "http://www.w3.org/TR/2001/REC-SVG-20010904/DTD/svg10.dtd">
<svg version="1.0" xmlns="http://www.w3.org/2000/svg"
  width="80.000000pt" height="80.000000pt" viewBox="0 0 80.000000 80.000000"
  preserveAspectRatio="xMidYMid meet">

  <g transform="translate(0.000000,80.000000) scale(0.100000,-0.100000)"
    fill="#4F46E5" stroke="none">
    <path
      d="M115 785 c-49 -17 -90 -62 -104 -112 -15 -51 -14 -496 0 -548 14 -50
64 -100 114 -114 53 -15 497 -15 550 0 50 14 100 64 114 114 15 53 15 497 0
550 -14 50 -64 100 -114 114 -62 17 -510 14 -560 -4z m420 -129 c38 -11 40
-14 43 -54 4 -47 2 -48 -58 -27 -131 46 -221 -16 -207 -143 7 -68 48 -102 122
-102 l55 0 0 40 c0 39 -1 40 -35 40 -33 0 -35 2 -35 35 l0 35 85 0 85 0 0 -99
c0 -98 0 -99 -27 -110 -91 -37 -216 -31 -284 14 -57 37 -82 99 -77 190 3 64 7
78 34 112 46 58 104 83 189 82 38 0 88 -6 110 -13z" />
  </g>
</svg>